<?xml version="1.0" encoding="UTF-8" standalone="no"?>
<svg width="800px" height="800px" viewBox="0 0 800 800" version="1.1" xmlns="http://www.w3.org/2000/svg" xmlns:xlink="http://www.w3.org/1999/xlink">
    <!-- Generator: Sketch 39.1 (31720) - http://www.bohemiancoding.com/sketch -->
    <title>lightgrey-bg copy</title>
    <desc>Created with Sketch.</desc>
    <defs>
        <rect id="path-1" x="0" y="0" width="800" height="800"></rect>
    </defs>
    <g id="Illustrations-and-textures" stroke="none" stroke-width="1" fill="none" fill-rule="evenodd">
        <g id="lightgrey-bg-copy">
            <mask id="mask-2" fill="white">
                <use xlink:href="#path-1"></use>
            </mask>
            <use id="Mask" fill="#E8EBEB" xlink:href="#path-1"></use>
            <g id="Group-4" opacity="0.6" mask="url(#mask-2)" fill="#D1D7D7">
                <g transform="translate(-130.000000, -90.000000)">
                    <path d="M397.578047,371.303462 L318.521616,366.413827 L323.83376,355.361841 L313.408448,341.393321 L295.54247,343.306316 L287.211646,353.085586 L292.712294,365.09407 L230.377728,362.370927 L226.804009,464.797154 L275.4223,490.491912 L275.885705,396.58792 L403.039423,381.438152 L402.191155,377.06858 L397.578047,371.303462 Z M285.072651,437.448126 L405.657532,419.225023 L403.039423,390.104123 L285.517729,406.994402 L285.072651,437.448126 Z M287.860937,491.751562 L405.657532,457.01712 L405.657532,431.622901 L285.072651,450.089048 L287.860937,491.751562 Z" id="Combined-Shape"></path>
                    <path d="M502.454161,213.735701 L482.155981,212.346973 L400.751607,206.439081 L400.800649,206.781754 L395.764821,206.439081 L395.764821,220.527329 L402.84234,221.153416 L417.549745,324.648446 L482.163725,321.417527 L495.216611,229.333772 L502.454161,229.972742 L502.454161,213.735701 Z M446.706439,196.635537 L465.197812,199.139885 L471.51131,157.800102 L452.452083,131.411691 L439.445658,141.107023 L451.164088,163.236496 L446.706439,196.635537 Z" id="Combined-Shape"></path>
                    <path d="M350.601775,14.1021714 L336.251055,22.9261745 L336.778433,5.00451997 L319.003241,0 L310.616305,12.557681 L316.412816,27.0239441 L303.655845,46.8147566 L312.92794,58.3822013 L327.413409,58.9619649 L339.589566,39.1688334 L356.6794,41.2467063 L362.701266,24.2155688 L350.601775,14.1021714 L350.601775,14.1021714 Z M306.097582,70.0424082 L327.713108,72.2339148 L325.403797,114.691168 L310.999641,150.79653 L256.728501,173.9291 L222.541865,158.883073 L204,113.75427 L233.551751,77.8622605 L269.157893,77.3404732 L293.672836,55.4462781 L306.097582,70.0424082 L306.097582,70.0424082 Z" id="201605_Expressive-Illustrations_Chicken-Leg_FA"></path>
                    <path d="M350.601775,814.102171 L336.251055,822.926174 L336.778433,805.00452 L319.003241,800 L310.616305,812.557681 L316.412816,827.023944 L303.655845,846.814757 L312.92794,858.382201 L327.413409,858.961965 L339.589566,839.168833 L356.6794,841.246706 L362.701266,824.215569 L350.601775,814.102171 L350.601775,814.102171 Z M306.097582,870.042408 L327.713108,872.233915 L325.403797,914.691168 L310.999641,950.79653 L256.728501,973.9291 L222.541865,958.883073 L204,913.75427 L233.551751,877.86226 L269.157893,877.340473 L293.672836,855.446278 L306.097582,870.042408 L306.097582,870.042408 Z" id="201605_Expressive-Illustrations_Chicken-Leg_FA-Copy-4"></path>
                    <path d="M819.830625,341.336818 L798.920601,334.329801 L815.672929,268.391508 L874.674146,222.51741 L937.580799,222.51741 L940.26163,239.871279 L874.674146,250.174638 L837.293866,287.741496 L819.830625,341.336818 L819.830625,341.336818 Z M922.29387,354.194843 C919.512135,359.008876 912.226421,359.645253 905.059956,356.142889 C900.225745,353.778222 900.250971,347.762397 900.778423,344.097505 C901.065082,342.094519 901.865433,340.212857 903.122144,338.626492 C904.848975,336.440376 907.731614,333.594992 911.056854,333.508005 C916.466674,333.366079 921.124303,335.790264 923.754682,340.173942 C926.391941,344.550752 925.073312,349.371653 922.29387,354.194843 L922.29387,354.194843 Z M905.422292,273.397828 C906.800547,268.105367 913.285911,267.315618 916.533179,267.25839 C917.762371,267.237788 918.973217,267.485014 920.096919,267.990911 C922.390187,269.027885 926.277278,271.248338 927.063869,274.627089 C928.19445,279.491483 927.102855,283.575285 923.614793,286.764039 C920.124438,289.952792 915.512675,289.657495 910.630306,288.034504 C905.74335,286.416091 903.573918,280.52159 905.422292,273.397828 L905.422292,273.397828 Z M872.153843,320.99106 C868.679541,323.916564 864.920874,324.722337 860.893894,323.225248 C856.869207,321.72587 855.199708,317.880137 854.497968,313.267547 C853.787054,308.652668 857.667265,304.465855 864.205374,303.01226 C869.062517,301.93637 872.38317,306.846547 873.770598,309.442416 C874.29805,310.42903 874.598468,311.509498 874.651213,312.624302 C874.758997,314.904273 874.568655,318.958316 872.153843,320.99106 L872.153843,320.99106 Z M880.301827,259.365482 L845.700989,294.608876 L829.836156,343.852568 L962.659986,388.35548 L941.169765,249.284168 L880.301827,259.365482 L880.301827,259.365482 Z" id="201605_Expressive-Illustrations_Pizza_FA-Copy-2"></path>
                    <path d="M21.3157925,341.336818 L0.405768524,334.329801 L17.1580963,268.391508 L76.1593134,222.51741 L139.065967,222.51741 L141.746798,239.871279 L76.1593134,250.174638 L38.7790336,287.741496 L21.3157925,341.336818 L21.3157925,341.336818 Z M123.779038,354.194843 C120.997303,359.008876 113.711588,359.645253 106.545124,356.142889 C101.710913,353.778222 101.736139,347.762397 102.263591,344.097505 C102.55025,342.094519 103.3506,340.212857 104.607312,338.626492 C106.334143,336.440376 109.216782,333.594992 112.542021,333.508005 C117.951842,333.366079 122.609471,335.790264 125.23985,340.173942 C127.877109,344.550752 126.558479,349.371653 123.779038,354.194843 L123.779038,354.194843 Z M106.90746,273.397828 C108.285715,268.105367 114.771078,267.315618 118.018347,267.25839 C119.247539,267.237788 120.458385,267.485014 121.582086,267.990911 C123.875355,269.027885 127.762446,271.248338 128.549037,274.627089 C129.679618,279.491483 128.588022,283.575285 125.099961,286.764039 C121.609606,289.952792 116.997842,289.657495 112.115473,288.034504 C107.228518,286.416091 105.059085,280.52159 106.90746,273.397828 L106.90746,273.397828 Z M73.6390111,320.99106 C70.164709,323.916564 66.4060416,324.722337 62.3790618,323.225248 C58.3543752,321.72587 56.6848756,317.880137 55.9831354,313.267547 C55.2722221,308.652668 59.1524327,304.465855 65.6905418,303.01226 C70.5476849,301.93637 73.8683379,306.846547 75.2557655,309.442416 C75.7832173,310.42903 76.0836355,311.509498 76.1363807,312.624302 C76.2441643,314.904273 76.053823,318.958316 73.6390111,320.99106 L73.6390111,320.99106 Z M81.7869947,259.365482 L47.1861567,294.608876 L31.3213238,343.852568 L164.145153,388.35548 L142.654932,249.284168 L81.7869947,259.365482 L81.7869947,259.365482 Z" id="201605_Expressive-Illustrations_Pizza_FA-Copy-4"></path>
                    <path d="M778.888505,64.8455097 L746.62223,55.1811533 L745.357462,86.7652486 L739.842488,88.367819 L731.653364,50.6988493 L712.270069,44.8928955 L704.411843,74.644433 L699.164039,75.8653226 L697.764461,40.5476051 L675.959479,34.0149896 L662.83139,63.57324 L659.005223,64.2705416 L660.049392,31.6515039 L627.162988,30 L606.539436,43.3735119 L605.041815,64.6179691 L613.522619,76.7828248 L755.659434,120.989303 L789.543435,109.847157 L795.894234,87.4111701 L778.888505,64.8455097 Z M789.442939,117.967663 L745.590317,135.774545 L725.028042,119.474813 L701.215609,122.670167 L682.048011,102.905947 L655.044246,104.10971 L634.874148,88.1035784 L603.259865,85.147998 L602,97.7728281 L630.790616,102.509586 L648.330685,117.106434 L677.753684,119.296206 L698.178697,136.006979 L720.402817,135.356164 L742.835281,150.16832 L793.979925,129.320223 L789.442939,117.967663 Z M605.414382,105.687814 L606.196283,119.47726 L611.007791,128.422294 L733.599537,174.228897 L756.23054,177.252984 L777.711977,170.820682 L788.023753,157.283243 L789.550788,142.245994 L755.296671,156.09416 L739.999358,157.708964 L605.414382,105.687814 Z" id="Combined-Shape"></path>
                    <path d="M778.888505,864.84551 L746.62223,855.181153 L745.357462,886.765249 L739.842488,888.367819 L731.653364,850.698849 L712.270069,844.892895 L704.411843,874.644433 L699.164039,875.865323 L697.764461,840.547605 L675.959479,834.01499 L662.83139,863.57324 L659.005223,864.270542 L660.049392,831.651504 L627.162988,830 L606.539436,843.373512 L605.041815,864.617969 L613.522619,876.782825 L755.659434,920.989303 L789.543435,909.847157 L795.894234,887.41117 L778.888505,864.84551 Z M789.442939,917.967663 L745.590317,935.774545 L725.028042,919.474813 L701.215609,922.670167 L682.048011,902.905947 L655.044246,904.10971 L634.874148,888.103578 L603.259865,885.147998 L602,897.772828 L630.790616,902.509586 L648.330685,917.106434 L677.753684,919.296206 L698.178697,936.006979 L720.402817,935.356164 L742.835281,950.16832 L793.979925,929.320223 L789.442939,917.967663 Z M605.414382,905.687814 L606.196283,919.47726 L611.007791,928.422294 L733.599537,974.228897 L756.23054,977.252984 L777.711977,970.820682 L788.023753,957.283243 L789.550788,942.245994 L755.296671,956.09416 L739.999358,957.708964 L605.414382,905.687814 Z" id="Combined-Shape-Copy-12"></path>
                    <polyline id="201605_Expressive-Illustrations_Cupcake_FA" points="494.699385 568.577703 555.396083 555.423733 567.99798 545.864795 560.353712 524.709503 541.593674 524.016456 555.488966 512.2254 553.057754 494.192292 532.217138 493.438981 530.401276 481.705872 498.117478 474.770774 498.117478 461.243626 482.919502 469.567133 477.752887 482.952891 485.308916 497.722424 475.927737 497.722424 458.642216 505.403879 458.642216 521.010166 474.861905 530.60619 453.011186 537.749896 453.772826 561.183665 462.715134 570.663795 456.257446 571.247901 464.640134 646.066755 479.540884 646.066755 479.540884 584.360149 489.797486 582.468759 487.215339 646.066755 504.024835 646.066755 509.061414 583.282334 517.667021 582.855845 514.578662 646.066755 531.169883 646.066755 536.208784 583.282334 544.812069 582.855845 541.72371 646.066755 556.917042 646.066755 570.577804 563.765783 494.699385 568.577703"></polyline>
                    <path d="M891.464244,575.101724 L900.616734,529.769945 L900.270529,508.017895 L883.82823,505.189983 L884.552335,495.275253 L910.649364,497.691877 L937.338842,499.753187 L933.513521,512.069938 L911.74893,508.964589 L911.129662,525.401526 L897.932426,576.846658 L891.464244,575.101724 L891.464244,575.101724 Z M976.111361,505.72052 L962.760527,478.042509 L876.387261,475.859516 L856.409771,500.597667 L867.922306,548.509125 L866.042559,611.056612 L893.324486,625.938441 L937.577772,591.480253 L978.195905,532.889897 L976.111361,505.72052 L976.111361,505.72052 Z M953.356917,610.572313 L911.300327,633.69208 L906.992269,624.984446 L948.463724,596.423016 L986.880286,537.562523 L986.112297,513.211325 L978.549424,489.901733 L985.344307,485.611191 L1000.46274,516.873983 L1000.87965,546.055996 L953.356917,610.572313 L953.356917,610.572313 Z" id="201605_Expressive-Illustrations_Steak_FA-Copy"></path>
                    <path d="M92.9494119,575.101724 L102.101901,529.769945 L101.755696,508.017895 L85.3133979,505.189983 L86.0375026,495.275253 L112.134531,497.691877 L138.824009,499.753187 L134.998688,512.069938 L113.234098,508.964589 L112.61483,525.401526 L99.4175936,576.846658 L92.9494119,575.101724 L92.9494119,575.101724 Z M177.596529,505.72052 L164.245695,478.042509 L77.8724289,475.859516 L57.8949389,500.597667 L69.4074734,548.509125 L67.5277267,611.056612 L94.8096541,625.938441 L139.06294,591.480253 L179.681073,532.889897 L177.596529,505.72052 L177.596529,505.72052 Z M154.842085,610.572313 L112.785494,633.69208 L108.477437,624.984446 L149.948892,596.423016 L188.365454,537.562523 L187.597464,513.211325 L180.034592,489.901733 L186.829474,485.611191 L201.947904,516.873983 L202.364813,546.055996 L154.842085,610.572313 L154.842085,610.572313 Z" id="201605_Expressive-Illustrations_Steak_FA-Copy-3"></path>
                    <path d="M668.990315,252.236388 L572.9257,317.236908 L575.434168,321.455937 L674.030985,260.70761 L668.990315,252.236388 Z M702.013343,289.788348 L588.085678,324.244144 L588.959014,329.247282 L704.011574,300.251824 L702.013343,289.788348 Z M697.399849,360.990675 L549.020493,360.028898 L564.270653,420.791439 L588.384701,430.721909 L586.66888,444.423685 L652.833595,446.425413 L653.282129,431.645784 L684.045873,417.001183 L697.399849,360.990675 Z M658.403486,328.68585 L645.488552,341.707748 L668.90488,354.255864 C668.90488,354.255864 678.309858,333.951937 676.615395,334.612863 C674.91856,335.276158 658.403486,328.68585 658.403486,328.68585 Z M633.90498,325.935546 L609.181021,333.182041 L613.027972,351.185757 C613.027972,351.185757 634.196884,353.583094 634.488787,352.318096 C634.78069,351.053098 633.90498,325.935546 633.90498,325.935546 Z M579.667951,330.860509 L569.225887,348.669975 L586.239331,352.081205 L591.593262,345.220842 L579.667951,330.860509 Z" id="Combined-Shape"></path>
                    <path d="M792.057409,602.080693 L785.731534,602.080693 L788.894472,592.206651 L794.82467,592.206651 L792.057409,602.080693 L792.057409,602.080693 Z M781.767352,618.960367 L767.78514,620.782127 L765.322055,615.06012 L782.027014,612.589141 L781.767352,618.960367 L781.767352,618.960367 Z M763.865471,644.168795 L756.908987,638.960238 L760.465128,634.223166 L768.371235,638.170314 L763.865471,644.168795 L763.865471,644.168795 Z M742.830329,577.072214 L735.873845,571.863657 L739.432459,567.129054 L747.338566,571.073734 L742.830329,577.072214 L742.830329,577.072214 Z M721.770457,632.142212 L696.222131,623.104995 L697.64162,608.056956 L726.231707,584.855427 L746.45324,594.601106 L747.338566,614.741682 L721.770457,632.142212 L721.770457,632.142212 Z M736.541548,653.176389 L734.21695,643.810861 L739.662445,640.601797 L741.648246,650.169743 L736.541548,653.176389 L736.541548,653.176389 Z M713.81489,663.793452 L706.395959,663.793452 L706.395959,656.242279 L713.81489,654.662432 L713.81489,663.793452 L713.81489,663.793452 Z M694.065696,649.868585 L687.106738,644.660028 L691.699057,638.547996 L698.57146,643.872573 L694.065696,649.868585 L694.065696,649.868585 Z M681.663716,603.458121 L678.441427,599.464072 L683.674246,595.25773 L686.896535,599.25178 L681.663716,603.458121 L681.663716,603.458121 Z M680.830323,624.736681 L675.889315,623.334567 L677.726736,616.881881 L682.667745,618.283995 L680.830323,624.736681 L680.830323,624.736681 Z M660.450519,647.701233 L659.075544,641.944667 L668.727573,642.485271 L670.196522,648.626924 L660.450519,647.701233 L660.450519,647.701233 Z M659.822383,608.081641 L668.964979,617.173165 L663.7742,622.996381 L654.898686,612.139872 L659.822383,608.081641 L659.822383,608.081641 Z M673.740298,575.445466 L677.82071,580.347927 L668.734992,589.501164 L662.995212,588.449578 L673.740298,575.445466 L673.740298,575.445466 Z M694.651791,574.201336 L709.348693,578.773018 L707.711583,584.912203 L691.614975,579.809792 L694.651791,574.201336 L694.651791,574.201336 Z M721.352524,559.21501 L725.274665,563.653391 L716.49807,567.69928 L712.313793,562.964677 L721.352524,559.21501 L721.352524,559.21501 Z M758.328476,569.990058 L763.27443,569.990058 L763.27443,565.053037 L758.328476,565.053037 L758.328476,569.990058 Z M770.500469,581.174878 L775.466206,584.408627 L768.091789,590.646552 L762.792199,587.198043 L770.500469,581.174878 L770.500469,581.174878 Z M799.088083,554.102725 L708.005867,541.538007 L653.150291,574.949295 L630.3717,631.095564 L669.42248,682.371461 L736.363494,679.354942 L809.256964,634.302159 L812.095942,592.826247 L799.088083,554.102725 L799.088083,554.102725 Z" id="201605_Expressive-Illustrations_Doughnut-Sprinkles_FA-Copy"></path>
                    <path d="M317.697613,614.658721 L299.007725,626.950342 L291.153098,648.745456 L273.834021,654.61643 L270.61906,673.32168 L243.566057,681.396023 L239.465342,696.672251 L227.891952,687.447103 L235.139673,666.089389 L260.468033,659.701488 L262.673046,643.19259 L282.539253,633.553433 L288.702042,615.334702 L307.588764,605.358724 L289.330037,598.32759 L254.598152,624.665106 L216.810648,668.858804 L212.995811,699.720012 L199.707151,710.343901 L195.393199,726.048172 L207.95779,738.213485 L227.627163,735.680312 L254.2162,704.671745 L298.110254,670.765116 L329.02496,632.030723 L345.310657,616.28201 L358.03459,593.422636 L344.675632,580.850332 L327.377644,584.941301 L317.697613,614.658721 L317.697613,614.658721 Z M371.138133,642.189145 L363.12182,677.2419 L327.64009,712.04204 L288.31306,749.375353 L265.920812,754.963304 L245.056374,746.835162 L244.039396,731.596359 L262.867537,711.784746 L313.250095,670.63647 L334.496485,644.47672 L346.327634,629.61684 L360.068545,625.806555 L371.138133,642.189145 L371.138133,642.189145 Z" id="201605_Expressive-Illustrations_Hot-Dog_FA"></path>
                    <path d="M556.569816,767.201361 C553.930619,771.121793 549.647865,771.798504 547.358893,769.875745 C545.067419,767.955482 542.823476,762.167227 549.039974,759.020893 C553.620419,756.701096 559.209013,763.283426 556.569816,767.201361 L556.569816,767.201361 Z M564.637504,724.363776 C569.510637,721.896651 575.456961,728.900989 572.647655,733.068633 C569.84085,737.238774 565.28542,737.957936 562.848854,735.912819 C560.412287,733.870199 558.02325,727.712374 564.637504,724.363776 L564.637504,724.363776 Z M590.83435,745.559079 C594.869444,743.516459 598.013966,749.621845 595.692474,753.070327 C593.368479,756.518808 591.372195,756.805974 589.355899,755.115444 C587.339602,753.422416 585.363331,748.328352 590.83435,745.559079 L590.83435,745.559079 Z M533.735132,742.789806 C531.015884,746.827601 528.679381,747.164708 526.320364,745.184515 C523.961347,743.204323 521.647359,737.241271 528.051477,734.000048 C532.772013,731.610332 536.454381,738.754508 533.735132,742.789806 L533.735132,742.789806 Z M515.395839,785.467577 C512.664082,786.401488 507.075489,784.948182 508.256248,777.342045 C509.126808,771.738574 517.199499,771.241653 518.625416,776.036066 C520.048831,780.83048 518.130097,784.536162 515.395839,785.467577 L515.395839,785.467577 Z M622.482201,757.345345 L607.402504,716.123378 L546.618417,698.224235 L538.08543,705.181129 L509.572094,695.097878 L459.985207,721.616977 L441.035522,762.769025 L437.753411,817.929751 C444.397684,825.895469 464.057826,829.226587 464.057826,829.226587 L448.197627,800.689839 L467.014728,789.010948 L455.12208,763.565597 L472.658357,754.710915 L471.840331,730.029674 L499.390547,725.727188 L504.538858,704.711676 L532.066559,710.087911 L484.983783,748.480675 L472.628338,826.012832 L622.482201,757.345345 L622.482201,757.345345 Z" id="201605_Expressive-Illustrations_Taco_FA-Copy"></path>
                    <path d="M906.05425,770.50429 L920.545396,751.789853 L921.343612,730.321858 L934.686344,716.104901 C934.686344,716.104901 939.577375,701.218106 939.632155,701.081404 L926.698313,696.072271 L922.574196,708.941741 L909.043648,724.781541 L908.032183,745.085621 L896.103937,762.208461 L906.05425,770.50429 Z M943.760185,738.672367 L932.641894,732.600867 L920.69604,759.158065 L908.454768,775.921576 L889.681035,775.040828 L899.416143,747.241599 L901.44103,719.741161 L887.517243,718.040203 L885.701692,745.298485 L876.062449,774.402236 L874.56775,774.331933 L877.042611,742.806611 L883.674849,713.337671 L869.61607,713.142383 L863.780092,741.215015 L863.040568,762.380315 L857.918681,751.56332 L861.786508,731.147925 L847.649472,728.218607 L843.717083,751.543791 L851.810761,766.633685 C851.810761,766.633685 851.74033,769.318893 851.638597,773.257849 L842.281077,772.818452 L858.04976,850.820334 L918.007929,854.571814 L922.388336,849.418167 L928.981446,776.884345 L924.008246,776.651953 C932.724063,759.83962 943.507808,739.06099 943.760185,738.672367 Z" id="Combined-Shape-Copy-6"></path>
                    <path d="M108.026614,770.50429 L122.51776,751.789853 L123.315976,730.321858 L136.658708,716.104901 C136.658708,716.104901 141.549739,701.218106 141.604519,701.081404 L128.670677,696.072271 L124.54656,708.941741 L111.016012,724.781541 L110.004547,745.085621 L98.0763007,762.208461 L108.026614,770.50429 Z M145.732549,738.672367 L134.614258,732.600867 L122.668404,759.158065 L110.427132,775.921576 L91.653399,775.040828 L101.388507,747.241599 L103.413394,719.741161 L89.489607,718.040203 L87.6740563,745.298485 L78.0348127,774.402236 L76.5401137,774.331933 L79.0149753,742.806611 L85.6472131,713.337671 L71.588434,713.142383 L65.752456,741.215015 L65.0129322,762.380315 L59.8910447,751.56332 L63.7588719,731.147925 L49.6218363,728.218607 L45.6894475,751.543791 L53.7831253,766.633685 C53.7831253,766.633685 53.7126945,769.318893 53.6109611,773.257849 L44.2534408,772.818452 L60.0221243,850.820334 L119.980293,854.571814 L124.360701,849.418167 L130.95381,776.884345 L125.98061,776.651953 C134.696427,759.83962 145.480172,739.06099 145.732549,738.672367 Z" id="Combined-Shape-Copy-10"></path>
                </g>
            </g>
        </g>
    </g>
</svg>